<svg xmlns="http://www.w3.org/2000/svg" viewBox="0 0 256 256" role="img" aria-labelledby="title">
  <title>macOS</title>
  <rect width="256" height="256" rx="48" fill="#ffffff" />
  <path
    fill="#111111"
    d="M166.3 66.7c-9.7 11.8-17.5 28.1-14.7 44.7 16.1 1.2 32.6-8.9 42.3-21.1 9.2-11.3 16.3-27.8 13.8-43.3-14.9-1.1-31 8.3-41.4 19.7zM214.9 192.8c-7.7 11.2-11.4 16.2-21.3 26.3-13.8 14.1-33.3 31.7-57.6 31.9-21.6.2-27.2-14-56.6-13.8-29.3.2-35.4 14.1-57 13.9-24.4-.2-43.1-16.1-56.8-30.2-38.3-39.4-42.4-105.8-16.7-145.6 18.2-28.3 46.9-44.8 73.8-44.8 27.4 0 44.6 14 62.5 14 17.4 0 28.1-14 62.2-14 24 0 49.2 13.1 67.4 35.6-59.2 32.8-49.6 117.8 0.1 151.7z"
  />
</svg>
